#!OML:ASF F:\VICON\USERDATA\INSTALL\rory3\rory3.ASF
:FULLY-SPECIFIED
:DEGREES
64
root 0.290722 18.0452 -12.6452 -0.788004 -5.45688 -6.65579
lowerback 10.9974 1.6197 6.878
upperback 0.480128 3.15743 2.58554
thorax -5.44921 1.40835 -1.63278
lowerneck -17.9542 -2.98566 -1.26309
upperneck 20.4389 -3.62109 -0.716326
head 9.42454 -1.86728 -0.518502
rclavicle -1.81888e-014 6.75868e-015
rhumerus -23.5929 -11.0817 -80.5009
rradius 30.4076
rwrist -1.98894
rhand -17.8947 22.5941
rfingers 7.12502
rthumb 8.37194 -7.22001
lclavicle -1.81888e-014 6.75868e-015
lhumerus -33.5564 5.98518 81.8472
lradius 24.4842
lwrist 5.77118
lhand -26.0658 17.1038
lfingers 7.12502
lthumb 0.482163 47.083
rfemur -1.99112 3.19603 32.9872
rtibia 26.5341
rfoot -20.9115 -2.12032
rtoes 0.890398
lfemur -28.1299 3.86478 -13.4903
ltibia 43.7549
lfoot -9.37856 7.02695
ltoes -10.5906
65
root 0.293366 18.0652 -12.4844 -0.688494 -5.58757 -6.77712
lowerback 11.2011 1.68314 6.98322
upperback 0.308941 3.28558 2.58396
thorax -5.73023 1.45538 -1.72312
lowerneck -17.4908 -2.96559 -1.16232
upperneck 20.2329 -3.62799 -0.718329
head 9.26563 -1.86447 -0.525915
rclavicle 4.76835e-014 4.6118e-014
rhumerus -23.6136 -10.5446 -80.5927
rradius 31.1121
rwrist -2.1764
rhand -18.4536 22.2852
rfingers 7.12502
rthumb 7.83252 -7.54971
lclavicle 4.76835e-014 4.6118e-014
lhumerus -34.2046 5.91568 81.807
lradius 24.5515
lwrist 5.80354
lhand -25.8839 17.5129
lfingers 7.12502
lthumb 0.657893 47.4916
rfemur -1.1126 3.1598 33.0779
rtibia 25.6817
rfoot -20.7147 -2.12837
rtoes 0.418176
lfemur -27.644 3.32638 -13.0672
ltibia 41.4564
lfoot -11.4986 6.1158
ltoes -1.8841
66
root 0.295152 18.0717 -12.3104 -0.476122 -5.63842 -6.78123
lowerback 10.9635 1.71373 6.96873
upperback 0.245938 3.30501 2.56503
thorax -5.66167 1.46657 -1.72927
lowerneck -17.1276 -2.93969 -1.05293
upperneck 19.9369 -3.61398 -0.771613
head 9.09329 -1.857 -0.550157
rclavicle 2.23633e-016 -1.19271e-015
rhumerus -23.3709 -10.059 -80.642
rradius 31.3865
rwrist -2.2868
rhand -18.8079 23.1946
rfingers 7.12502
rthumb 7.49059 -6.65282
lclavicle 2.23633e-016 -1.19271e-015
lhumerus -34.651 6.20416 81.688
lradius 24.6001
lwrist 5.49527
lhand -25.9136 20.286
lfingers 7.12502
lthumb 0.629178 50.2648
rfemur -0.382872 2.99015 33.0206
rtibia 24.9453
rfoot -20.6437 -2.02458
rtoes 0.72591
lfemur -27.6891 2.91103 -12.9824
ltibia 38.7191
lfoot -11.949 6.18524
ltoes -1.5138
67
root 0.294741 18.0521 -12.1319 -0.204895 -5.75012 -7.06014
lowerback 10.6829 1.70596 7.17489
upperback 0.184019 3.30382 2.67487
thorax -5.56549 1.46417 -1.71775
lowerneck -16.8877 -2.87694 -1.18404
upperneck 19.7623 -3.49817 -0.755722
head 8.9925 -1.81187 -0.502262
rclavicle -2.96438e-014 -9.93923e-015
rhumerus -23.1586 -9.20039 -80.7358
rradius 32.0549
rwrist -2.92242
rhand -18.8355 22.8601
rfingers 7.12502
rthumb 7.46398 -6.98823
lclavicle -2.96438e-014 -9.93923e-015
lhumerus -34.9373 6.60277 81.5971
lradius 24.449
lwrist 5.36247
lhand -25.82 23.5375
lfingers 7.12502
lthumb 0.719638 53.516
rfemur 0.431722 3.0331 33.307
rtibia 24.1191
rfoot -20.5578 -1.95519
rtoes 1.3554
lfemur -28.0195 2.37267 -12.5803
ltibia 35.8298
lfoot -11.5312 6.89009
ltoes -3.61241
68
root 0.296941 18.0304 -11.9629 -0.0950208 -5.89692 -7.16754
lowerback 10.8099 1.70753 7.16897
upperback 0.118134 3.32628 2.74373
thorax -5.70996 1.46972 -1.65193
lowerneck -16.9741 -2.8681 -1.3729
upperneck 19.8816 -3.4618 -0.634734
head 9.0556 -1.7955 -0.428369
rclavicle -3.57812e-015 -3.89618e-014
rhumerus -22.7715 -8.6496 -80.8206
rradius 32.4418
rwrist -3.15867
rhand -18.72 22.641
rfingers 7.12502
rthumb 7.57537 -7.20329
lclavicle -3.57812e-015 -3.89618e-014
lhumerus -35.1292 7.14979 81.4528
lradius 24.0848
lwrist 4.99347
lhand -25.7266 25.0802
lfingers 7.12502
lthumb 0.809773 55.0584
rfemur 1.29817 3.29702 33.4544
rtibia 23.4531
rfoot -20.5522 -2.07316
rtoes 2.14247
lfemur -27.9048 1.79946 -12.3174
ltibia 32.4957
lfoot -11.2043 7.68126
ltoes -6.78824
69
root 0.29845 18.0207 -11.7887 0.010135 -6.0428 -7.23429
lowerback 10.8365 1.81051 7.21222
upperback 0.145051 3.46583 2.69348
thorax -5.6797 1.53776 -1.7494
lowerneck -17.3352 -2.96586 -1.33287
upperneck 20.1095 -3.62509 -0.53876
head 9.20176 -1.85665 -0.431853
rclavicle -6.73383e-015 1.21259e-014
rhumerus -22.281 -8.66362 -80.8401
rradius 32.5351
rwrist -3.01624
rhand -18.9452 23.2601
rfingers 7.12502
rthumb 7.35808 -6.59192
lclavicle -6.73383e-015 1.21259e-014
lhumerus -35.1369 7.21782 81.3152
lradius 23.6855
lwrist 4.60838
lhand -25.6826 23.2522
lfingers 7.12502
lthumb 0.852332 53.2303
rfemur 2.12053 3.44526 33.5398
rtibia 22.8944
rfoot -20.5622 -2.15354
rtoes 2.76808
lfemur -27.5037 1.07416 -11.9766
ltibia 29.1245
lfoot -11.2571 8.07287
ltoes -9.47984
